# xmcd
#
# Track frame offsets:
#	150
#	18188
#	36773
#	54763
#	67289
#	87098
#	100283
#	113725
#	130989
#
# Disc length: 1936 seconds
#
# Revision: 1
# Processed by: cddbd v1.5.2PL0 Copyright (c) Steve Scherf et al.
# Submitted via: audiograbber 1.83.01
#
DISCID=6f078e09
DTITLE=Moshka - Come Into the Light
DYEAR=2015
DGENRE=
TTITLE0=Ultima Copa
TTITLE1=Screaming Child
TTITLE2=Rollin' Out Of Town
TTITLE3=The Wisdom Eye
TTITLE4=The Green Grow
TTITLE5=Walkin' Out Of The Line
TTITLE6=Be Just Be
TTITLE7=Don't Run To Your Tombstone
TTITLE8=Smile
EXTD=Mixed and Mastered at Zinkman Studio (Girona)
EXTT0=
EXTT1=
EXTT2=
EXTT3=
EXTT4=
EXTT5=
EXTT6=
EXTT7=
EXTT8=
PLAYORDER=
